<svg xmlns="http://www.w3.org/2000/svg" width="417" height="148" viewBox="0 0 417 148" overflow="visible" class="style0"><style>.style0{fill: #ffffff;}.style1{fill: #cccccc;}</style><path d="M123.97 98.355c-8.84-5.52-13.147-17.104-10.98-29.518 2.606-14.867 13.47-23.82 29.12-24.105C130.743 18.4 104.6 0 74.1 0 33.16 0 0 33.2 0 74.084c0 40.9 33.2 74.1 74.1 74.1 30.854 0 57.292-18.863 68.434-45.686-.838.06-1.68.102-2.528.102-5.98 0-11.706-1.5-16.006-4.245zm-72.02-6.273c-4.577-2.252-7.732-6.95-7.732-12.395 0-7.63 13.815-29.277 13.815-29.277s1.014 1.6 2.5 4c6.05 11.4 9.8 20.9 9.8 24.91 0 7.773-5.753 14.102-12.824 14.102-1.918 0-3.78-.475-5.542-1.396l-.018.056zm22.164 16.813c-8.66 0-16.184-4.807-20.098-11.89 1.14.3 2.3.4 3.5.413 9.253 0 16.78-8.102 16.78-18.06 0-6.44-6.524-19.647-9.823-25.92 5.072-9.083 9.656-16.27 9.656-16.27s22.997 36 23 48.7C97.11 98.6 86.8 108.9 74.1 108.894z" class="style1"/><path d="M408.2 56.73c-2.473-2.146-3.076-3.697-1.793-6.816l2.213-5.47-10.512-.013-1.117 4c-1.645 5.878-5.075 10.7-10.157 14.25-1.273.888-2.037 1.183-2.92-.585-3.014-6.045-8.312-8.842-14.744-9.943-6.75-1.148-22.548-.582-22.548-.582l-.51 2.678c-.863 4.117-2.684 7.705-6.477 9.957-1.1.654-1.953 1.072-2.674.4-.313-.28-.608-.777-.886-1.56-5.604-15.927-25.895-16.19-34.354-8.288-7.414 6.918-8.73 15.686-7.078 25.1 1.066 6.1 3.9 11.2 9.5 14.47 14.465 8.5 31.996-.522 33.574-17.243.12-1.31-.354-2.9 1.633-3.385 2.397-.585 4.41-2.048 6.726-3.296.775 1.4.5 2.6.5 3.762.033 13.9 0 33.8 0 47.71h10.746l-.026-26.476s1.6.3 2.6.572c4.77 1.2 9.6 1 14.125-.842 8.646-3.426 11.526-10.69 12.106-19.234.133-1.96.562-3.174 2.52-4.012 3.577-1.53 6.743-3.857 9.105-6.934 1.65-2.156 2.874-1.45 4.224-.07 3.77 3.9 4.4 8.6 3.4 13.672-1.31 6.693-6.672 10.408-13.283 9.404l-4.1-.617.015 8.694 2.258.6c8.27 2.2 18.613-1.676 22.895-8.98C419.09 77.4 417.2 64.5 408.2 56.73zM325.755 79.5c-1.023 3.2-2.36 6.146-5.49 7.766-5.016 2.586-11.07.23-13.324-5.193-1.116-2.71-1.808-5.55-1.59-8.092-.036-4.245.714-7.854 2.937-11.042 2.252-3.232 5.482-4.137 9.213-3.703 3.463.4 5.6 2.5 7.1 5.523l.98 2.3-2.22.014h-2.857v8.768l2.682.016h3.5c-.006.844-.885 3.644-.885 3.603zm48.627-1.5c-.91 6.447-7.777 12.457-15.135 8.258-1.38-.78-1.98-.637-1.965-2.252v-23.46l2.61-.02c5.103.1 10 .5 13.2 5.436-1.603 1.22-4.155 1.348-4.155 1.348l-.02 8.156 3.255-.13c.977-.04 2.55-.122 2.55-.122l-.34 2.782zM269.548 59.016l-.012-7.623-10.436-.033-.018 26.84c-.05 4.236-3.56 7.81-7.398 7.8-3.63.01-5.055-2.12-5.104-7.52V23.52l-15.77-.017-.015 8.865 3.834-.014c1.448.2 1.2 1.9 1.3 2.93.038 3.852-.13 7.7.1 11.562.122 2.424-.835 2.963-3.022 2.9-3.64-.053-7.23.457-10.676 1.69-12.193 4.355-18.957 17.5-16.038 30.99 1.41 6.5 4.3 12.1 11.1 14 7.916 2.2 15.1.8 20.225-6.382 4.52 6.5 8.7 8.1 15.2 6.332 2.218-.582 6.384-2.54 6.384-2.54l-.012 2.9 11.23.005.037-20.87c0-5.144 2.187-9.976 6.843-13.122 1.115-.753 1.832-1.32 3.02-.938 1.442.5 1.3 3.1 1.3 3.066l.007 3.61 9.158-.01V53.274l.012-3.12h-2.994C280.462 50.1 269.5 59 269.5 59.014zM235.3 79.346c-1.48 4.656-5.824 7.723-10.61 7.3-4.29-.33-6.882-3.303-7.524-8.646-.994-8.143 2.377-14.977 8.676-17.89 2.686-1.235 5.443-1.017 8.24-.942 1.576 0 1.9 1 1.8 2.36-.035 2.45-.014 4.897-.014 8.022-.14 2.85.532 6.35-.568 9.796zM189.595 52.23c-7.806-3.682-15.734-3.598-22.99 1.303-7.734 5.213-10.064 13.29-9.49 22.1.116 1.8.6 4.2.6 4.174s-2.7 2.705-3.812 3.79c-2.788 2.704-6.21 4.106-10 4.5-7.035.802-12.688-2.696-14.467-8.854-2.143-7.42 1.03-15.98 6.98-18.844 1.25-.597 2.55-.94 3.937-1.087h-.083c.02 0 .07-.006.167-.018-.026.004-.062.01-.083 0 .614-.006 3.9.1 3.9 3.625l.037 4.396 9.3.014V50.75s-3.446-.434-7.124-.75c-14.16-1.21-25.678 4.758-28.294 19.727-1.79 10.2 1.6 19.9 8.6 24.27 9.22 5.8 24.6 4.1 32.253-3.53.736-.73 1.814-1.71 1.814-1.71s.908.9 1.6 1.647c6.744 7.5 18.4 9.2 27.3 4.4 8.236-4.52 12.577-15.03 10.777-26.12C199.38 61.6 196.4 55.5 189.6 52.23zM187.51 82.8c-1.556 3.494-4.4 5.408-8.246 5.48-3.933.063-7.02-1.583-8.74-5.24-3.027-6.397-3.07-12.85.25-19.136 1.737-3.297 4.345-4.63 7.992-4.656 4.126-.25 7 1.7 8.7 5.28 2.832 5.972 2.734 12.172.034 18.245z"/></svg>