<svg xmlns="http://www.w3.org/2000/svg" width="486" height="63" viewBox="0 0 486 63" overflow="visible" class="style0"><style>.style0{fill: #ffffff;}.style1{fill: #cccccc;}</style><path d="M460.678 24c4.104-2.42 8.242-5.938 12.543-9.08 1.446-1.06 3.048-2.424 4.456-2.806 7.455-2.02 10.8 7.3 5.8 11.057-2.398 1.78-6.2 2.78-9.24 4.13-3.39 1.505-6.275 2.976-9.24 4.1 3.08 1.7 6.5 2.9 10.1 4.456 3.088 1.3 7.7 2.6 9.6 4.95 3.61 4.395-.32 11.33-6.105 10.2-3.292-.622-6.3-3.92-9.077-5.94-3.154-2.294-5.97-4.235-8.748-6.272.33 3 .6 6 1 9.2.31 2.9 1.2 6.2 1 9.078-.436 7.52-11.664 7.574-12.05.163-.146-2.812.634-6.178.99-9.24.368-3.163.73-6.194.99-9.08-4.048 2.724-8.562 6.013-13.04 9.244-2.074 1.494-4.055 3.594-7.426 2.8-5.09-1.194-6.2-8.264-2.147-11.387 2.168-1.67 6.1-2.853 9.076-4.13 3.51-1.504 6.636-2.797 9.245-3.96-2.715-1.3-5.592-2.742-8.75-4.125-3.525-1.544-8.453-2.696-10.727-5.283-3.955-4.492.348-11.596 6.602-10.066 2.807.7 6.5 4.3 8.7 5.94 2.963 2.2 5.6 4.2 8.4 6.107.445-7.344-6.164-22.94 3.135-24.098 3.814-.475 6.7 1.9 6.9 5.447.22 2.86-.648 6.178-.99 9.24C461.31 18 461.1 21.1 460.7 24z" class="style1"/><path d="M46.596 40.605c0 1.665-.41 3.465-1.23 5.4-.82 1.94-2.11 3.84-3.868 5.704-1.76 1.864-4.005 3.383-6.738 4.5-2.734 1.164-5.918 1.747-9.553 1.747-2.76 0-5.265-.265-7.523-.786-2.257-.522-4.307-1.335-6.15-2.44-1.84-1.105-3.535-2.563-5.08-4.372-1.377-1.637-2.554-3.473-3.53-5.507-.975-2.03-1.706-4.2-2.192-6.503C.242 36.1 0 33.6 0 31.047c0-4.207.61-7.972 1.836-11.3 1.223-3.328 2.978-6.175 5.26-8.538 2.28-2.366 4.955-4.17 8.02-5.4 3.067-1.238 6.334-1.857 9.805-1.857 4.23 0 8 .8 11.3 2.5 3.305 1.7 5.8 3.8 7.6 6.26 1.758 2.5 2.6 4.8 2.6 7.04 0 1.21-.427 2.28-1.282 3.2-.856.928-1.89 1.392-3.102 1.392-1.354 0-2.37-.32-3.048-.963-.677-.642-1.433-1.747-2.263-3.315-1.38-2.59-3-4.525-4.867-5.812-1.865-1.284-4.166-1.925-6.898-1.925-4.35 0-7.814 1.65-10.392 5-2.58 3.303-3.868 7.998-3.868 14.083 0 4.1.6 7.4 1.7 10.143 1.14 2.7 2.8 4.7 4.8 6 2.09 1.3 4.5 2 7.3 2 3.042 0 5.615-.756 7.72-2.267 2.102-1.51 3.688-3.727 4.758-6.65.45-1.378 1.01-2.5 1.676-3.37.665-.867 1.735-1.302 3.208-1.302 1.26 0 2.3.4 3.2 1.3 1.083.932 1.538 2.032 1.538 3.337zM92.035 41.424c0 3.16-.813 6-2.44 8.522-1.63 2.518-4.012 4.49-7.15 5.917-3.138 1.424-6.857 2.14-11.158 2.1-5.158 0-9.41-.976-12.763-2.926-2.376-1.402-4.307-3.272-5.793-5.613-1.485-2.343-2.228-4.617-2.228-6.828 0-1.282.445-2.382 1.336-3.3.89-.913 2.026-1.372 3.404-1.372 1.118 0 2.1.4 2.8 1.1.77.7 1.4 1.8 2 3.174.666 1.7 1.4 3.1 2.2 4.17.77 1.1 1.9 2 3.3 2.8 1.402.7 3.2 1.1 5.5 1.09 3.14 0 5.686-.73 7.646-2.192 1.96-1.46 2.94-3.286 2.94-5.473 0-1.734-.53-3.144-1.586-4.225-1.06-1.08-2.424-1.906-4.1-2.477-1.675-.568-3.913-1.176-6.72-1.818-3.756-.88-6.897-1.907-9.43-3.084-2.53-1.175-4.54-2.78-6.025-4.812-1.485-2.032-2.23-4.558-2.23-7.576 0-2.873.786-5.43 2.354-7.665 1.57-2.233 3.84-3.95 6.81-5.152 2.97-1.197 6.465-1.798 10.48-1.798 3.21 0 6 .4 8.3 1.192 2.34.8 4.3 1.9 5.8 3.173 1.545 1.3 2.7 2.7 3.4 4.2.716 1.4 1.1 2.9 1.1 4.242 0 1.258-.445 2.395-1.335 3.404-.89 1.012-2.002 1.515-3.333 1.5-1.212 0-2.134-.302-2.763-.908-.63-.606-1.316-1.597-2.05-2.978-.952-1.974-2.093-3.514-3.424-4.616-1.33-1.105-3.47-1.658-6.418-1.658-2.735 0-4.938.6-6.614 1.802-1.676 1.2-2.514 2.643-2.514 4.3 0 1 .3 1.9.9 2.708.57.8 1.4 1.4 2.4 1.962 1 .5 2 1 3 1.3 1.023.3 2.7.8 5.1 1.354 2.946.7 5.6 1.4 8 2.28 2.39.8 4.4 1.8 6.1 3 1.676 1.2 3 2.7 3.9 4.51C91.566 36.6 92 38.8 92 41.425zM136.94 41.424c0 3.16-.814 6-2.442 8.522-1.628 2.518-4.01 4.49-7.148 5.917-3.14 1.424-6.858 2.14-11.16 2.1-5.157 0-9.41-.976-12.762-2.926-2.377-1.402-4.31-3.272-5.794-5.613-1.486-2.343-2.228-4.617-2.228-6.828 0-1.282.444-2.382 1.336-3.3.89-.913 2.026-1.372 3.404-1.372 1.118 0 2.1.4 2.8 1.1.772.7 1.4 1.8 2 3.174.664 1.7 1.4 3.1 2.2 4.17.77 1.1 1.9 2 3.3 2.8 1.4.7 3.2 1.1 5.5 1.09 3.137 0 5.686-.73 7.646-2.192 1.96-1.46 2.94-3.286 2.94-5.473 0-1.734-.53-3.144-1.586-4.225-1.058-1.08-2.424-1.906-4.1-2.477-1.676-.568-3.916-1.176-6.72-1.818-3.756-.88-6.897-1.907-9.43-3.084-2.53-1.175-4.538-2.78-6.024-4.812-1.486-2.032-2.23-4.558-2.23-7.576 0-2.873.787-5.43 2.354-7.665 1.568-2.233 3.84-3.95 6.81-5.152 2.97-1.197 6.464-1.798 10.48-1.798 3.21 0 6 .4 8.3 1.192 2.34.8 4.3 1.9 5.8 3.173 1.544 1.3 2.7 2.7 3.4 4.2.713 1.4 1.1 2.9 1.1 4.242 0 1.258-.444 2.395-1.335 3.404-.89 1.012-2 1.515-3.332 1.5-1.212 0-2.134-.302-2.764-.908-.63-.606-1.313-1.597-2.05-2.978-.95-1.974-2.092-3.514-3.42-4.616-1.332-1.105-3.472-1.658-6.42-1.658-2.734 0-4.937.6-6.612 1.802-1.676 1.2-2.514 2.643-2.514 4.3 0 1 .3 1.9.9 2.708.57.8 1.4 1.4 2.4 1.962 1 .5 2 1 3 1.3 1.022.3 2.7.8 5.1 1.354 2.947.7 5.6 1.4 8 2.28 2.39.8 4.4 1.8 6.1 3 1.676 1.2 3 2.7 3.9 4.51.83 1.848 1.262 4.048 1.262 6.672zM156.073 42.422h-11.267c-1.71 0-3.01-.397-3.904-1.194-.89-.795-1.336-1.823-1.336-3.084 0-1.282.433-2.32 1.3-3.12.87-.794 2.182-1.192 3.94-1.192h11.267c1.757 0 3.1.4 3.9 1.2.867.8 1.3 1.8 1.3 3.12 0 1.26-.426 2.288-1.283 3.083-.815.765-2.09 1.165-3.89 1.187zM200.235 13.58h-11.55v37.97c0 2.187-.487 3.81-1.462 4.867-.975 1.055-2.235 1.587-3.778 1.6-1.568 0-2.848-.535-3.833-1.604-.988-1.07-1.48-2.688-1.48-4.85v-37.97H166.58c-1.806 0-3.15-.398-4.028-1.193-.88-.795-1.32-1.847-1.32-3.155 0-1.354.458-2.424 1.374-3.21.915-.784 2.24-1.18 3.975-1.18h33.657c1.83 0 3.2.4 4.1 1.212.89.8 1.3 1.9 1.3 3.174 0 1.31-.453 2.36-1.354 3.2-.888.76-2.283 1.16-4.083 1.14zM222.358 34.758h-3.707V51.55c0 2.21-.487 3.837-1.462 4.884-.974 1.044-2.246 1.57-3.816 1.6-1.688 0-2.994-.55-3.92-1.642-.926-1.09-1.39-2.698-1.39-4.812V11.334c0-2.28.51-3.934 1.533-4.956 1.02-1.022 2.674-1.532 4.955-1.532h17.22c2.377 0 4.4.1 6.1.303 1.687.2 3.2.6 4.6 1.2 1.64.7 3.1 1.7 4.4 2.96 1.258 1.3 2.2 2.8 2.9 4.472.654 1.7 1 3.5 1 5.4 0 3.9-1.1 7.01-3.297 9.34-2.2 2.33-5.535 3.98-10.003 4.957 1.877 1 3.7 2.5 5.4 4.4 1.714 1.9 3.2 4 4.6 6.22s2.387 4.2 3.1 5.954c.748 1.8 1.1 3 1.1 3.656 0 .69-.217 1.372-.66 2-.436.678-1.035 1.212-1.8 1.605-.757.392-1.636.588-2.636.588-1.19 0-2.186-.28-2.997-.84-.81-.56-1.505-1.264-2.087-2.12-.583-.854-1.372-2.115-2.37-3.78l-4.243-7.058c-1.52-2.59-2.882-4.564-4.08-5.918-1.203-1.355-2.42-2.282-3.655-2.78-1.35-.407-2.942-.607-4.742-.65zm6.06-21.963h-9.77v14.367h9.483c2.543 0 4.683-.22 6.42-.66 1.732-.44 3.058-1.187 3.975-2.244.914-1.057 1.372-2.513 1.372-4.367 0-1.45-.368-2.726-1.104-3.833-.737-1.104-1.76-1.932-3.067-2.477-1.236-.48-3.626-.78-7.326-.785zM257.278 51.55V10.372c0-2.14.486-3.745 1.463-4.814.974-1.07 2.237-1.604 3.778-1.604 1.592 0 2.9.5 3.9 1.587.982 1.1 1.5 2.7 1.5 4.83v41.178c0 2.164-.496 3.78-1.48 4.8C265.402 57.5 264.1 58 262.5 58c-1.52 0-2.775-.54-3.762-1.622-.968-1.078-1.438-2.678-1.438-4.828zM318.614 40.605c0 1.665-.414 3.465-1.23 5.4-.82 1.94-2.11 3.84-3.87 5.704-1.76 1.864-4.005 3.383-6.735 4.5-2.737 1.162-5.92 1.747-9.556 1.747-2.76 0-5.266-.265-7.523-.786-2.255-.522-4.306-1.335-6.15-2.44-1.837-1.108-3.534-2.563-5.08-4.372-1.376-1.637-2.552-3.473-3.526-5.507-.98-2.03-1.707-4.2-2.193-6.503-.487-2.305-.73-4.756-.73-7.345 0-4.208.614-7.973 1.837-11.3 1.225-3.33 2.98-6.176 5.26-8.54 2.28-2.364 4.957-4.167 8.023-5.4 3.064-1.236 6.332-1.855 9.803-1.855 4.23 0 8 .8 11.3 2.5 3.305 1.7 5.8 3.8 7.6 6.26 1.762 2.5 2.6 4.8 2.6 7.04 0 1.21-.428 2.28-1.283 3.2-.855.928-1.89 1.392-3.102 1.392-1.352 0-2.37-.322-3.05-.964s-1.43-1.747-2.26-3.315c-1.38-2.59-3.003-4.524-4.866-5.81-1.87-1.285-4.168-1.926-6.898-1.926-4.35 0-7.816 1.65-10.393 5-2.58 3.303-3.868 7.998-3.868 14.083 0 4.1.6 7.4 1.7 10.143 1.14 2.7 2.8 4.7 4.8 6s4.537 2 7.3 2c3.04 0 5.615-.756 7.717-2.267 2.103-1.51 3.69-3.726 4.76-6.65.448-1.377 1.01-2.5 1.675-3.37.664-.866 1.732-1.3 3.21-1.3 1.257 0 2.3.4 3.2 1.318 1.076.96 1.515 2.06 1.515 3.365zM333.17 10.372v18.323L353.953 7.02c1-1.048 1.852-1.817 2.55-2.318s1.636-.75 2.8-.75c1.52 0 2.7.4 3.7 1.336.94.9 1.4 2 1.4 3.262 0 1.548-.797 3.08-2.387 4.602l-12.87 12.193 14.83 21.2c1.044 1.5 1.8 2.8 2.4 3.87.52 1.1.8 2.2.8 3.226 0 1.165-.46 2.176-1.372 3-.916.856-2.158 1.285-3.725 1.285-1.478 0-2.677-.318-3.603-.947-.928-.63-1.713-1.467-2.354-2.513-.64-1.047-1.213-1.998-1.71-2.85L341.83 32.44l-8.663 8.307V51.55c0 2.186-.5 3.81-1.496 4.9-1 1.055-2.282 1.587-3.85 1.587-.903 0-1.77-.24-2.605-.716-.83-.475-1.477-1.116-1.924-1.924-.335-.666-.534-1.438-.606-2.318-.07-.878-.105-2.15-.105-3.815v-38.89c0-2.142.466-3.746 1.403-4.815.94-1.07 2.217-1.604 3.836-1.604 1.59 0 2.9.5 3.9 1.587.954 1.06 1.48 2.66 1.48 4.832zM408.827 41.424c0 3.16-.816 6-2.44 8.522-1.63 2.518-4.013 4.49-7.15 5.917-3.136 1.424-6.858 2.14-11.157 2.1-5.16 0-9.412-.976-12.766-2.926-2.377-1.402-4.305-3.272-5.79-5.613-1.485-2.343-2.23-4.617-2.23-6.828 0-1.282.445-2.382 1.332-3.3.893-.913 2.03-1.372 3.404-1.372 1.12 0 2.1.4 2.8 1.1.77.7 1.4 1.8 2 3.174.662 1.7 1.4 3.1 2.2 4.17.77 1.1 1.9 2 3.3 2.8 1.4.7 3.2 1.1 5.5 1.09 3.14 0 5.686-.73 7.646-2.192 1.96-1.46 2.94-3.286 2.94-5.473 0-1.734-.526-3.144-1.585-4.225-1.056-1.08-2.425-1.906-4.1-2.477-1.677-.568-3.92-1.176-6.72-1.818-3.758-.877-6.898-1.907-9.432-3.08-2.53-1.177-4.537-2.78-6.025-4.815-1.484-2.033-2.227-4.557-2.227-7.575 0-2.875.783-5.43 2.352-7.664 1.57-2.235 3.838-3.954 6.807-5.15 2.973-1.2 6.47-1.8 10.482-1.8 3.207 0 6 .4 8.3 1.193 2.34.8 4.3 1.9 5.8 3.174 1.55 1.3 2.7 2.7 3.4 4.2.713 1.5 1.1 2.9 1.1 4.242 0 1.262-.445 2.396-1.336 3.404-.888 1.012-2 1.515-3.33 1.5-1.212 0-2.134-.302-2.765-.908-.63-.606-1.312-1.597-2.053-2.978-.947-1.972-2.088-3.512-3.422-4.616-1.328-1.104-3.47-1.656-6.416-1.656-2.73 0-4.94.6-6.613 1.8-1.675 1.2-2.513 2.645-2.513 4.3 0 1 .3 2 .9 2.71.57.8 1.4 1.4 2.4 1.96 1 .5 2 1 3 1.3 1.023.3 2.7.8 5.1 1.355 2.943.7 5.6 1.4 8 2.283 2.39.8 4.4 1.8 6.1 3 1.678 1.2 3 2.7 3.9 4.51.83 1.84 1.283 4.04 1.283 6.664z"/></svg>