<svg xmlns="http://www.w3.org/2000/svg" width="478" height="126" viewBox="0 0 478 126" overflow="visible" class="style0"><style>.style0{fill: #ffffff;}.style1{fill: #cccccc;}</style><path d="M175.244 50.5c-2.27-1.196-5.777-2.353-10.518-3.472-4.74-1.12-7.726-2.195-8.955-3.226-.965-.812-1.447-1.79-1.447-2.93 0-1.25.515-2.25 1.547-2.996 1.602-1.164 3.82-1.745 6.65-1.745 2.743 0 4.8.5 6.2 1.63 1.37 1.1 2.3 2.9 2.7 5.35l9.745-.427c-.153-4.433-1.76-7.977-4.822-10.633-3.062-2.655-7.62-3.983-13.68-3.983-3.708 0-6.874.56-9.497 1.68s-4.63 2.748-6.024 4.9c-1.394 2.14-2.09 4.437-2.09 6.896 0 3.8 1.5 7.1 4.4 9.71 2.106 1.9 5.8 3.5 11 4.8 4.06 1 6.7 1.7 7.8 2.108 1.666.6 2.8 1.3 3.5 2.09.668.8 1 1.8 1 2.9 0 1.78-.797 3.332-2.388 4.66-1.59 1.328-3.957 1.992-7.094 1.992-2.962 0-5.317-.744-7.06-2.24-1.746-1.492-2.904-3.83-3.474-7.01l-9.48.92c.635 5.4 2.6 9.5 5.9 12.33 3.27 2.8 8 4.2 14.1 4.2 4.19 0 7.69-.588 10.5-1.762 2.81-1.174 4.982-2.967 6.52-5.383 1.535-2.414 2.303-5.004 2.303-7.77 0-3.05-.644-5.612-1.927-7.686-1.36-2.1-3.153-3.7-5.453-4.9zm136.12 0c-2.27-1.197-5.78-2.354-10.52-3.473-4.74-1.12-7.725-2.195-8.953-3.226-.966-.81-1.446-1.788-1.446-2.93 0-1.25.514-2.25 1.547-2.995 1.603-1.164 3.817-1.745 6.65-1.745 2.743 0 4.8.5 6.2 1.6 1.372 1.1 2.3 2.9 2.7 5.35l9.743-.428c-.154-4.433-1.762-7.977-4.822-10.633-3.06-2.656-7.62-3.984-13.677-3.984-3.71 0-6.877.56-9.498 1.68-2.623 1.118-4.63 2.748-6.025 4.888-1.395 2.14-2.09 4.438-2.09 6.9 0 3.8 1.5 7.1 4.4 9.71 2.11 1.9 5.8 3.5 11 4.774 4.06 1 6.7 1.7 7.8 2.1 1.668.6 2.8 1.3 3.5 2.09.668.8 1 1.8 1 2.914 0 1.778-.797 3.33-2.387 4.7-1.592 1.328-3.955 1.992-7.096 1.992-2.96 0-5.314-.744-7.06-2.24-1.745-1.492-2.903-3.83-3.474-7.01l-9.48.9c.635 5.4 2.6 9.5 5.9 12.33 3.27 2.8 8 4.2 14.1 4.23 4.19 0 7.69-.59 10.502-1.763s4.98-2.966 6.52-5.382c1.535-2.414 2.303-5.004 2.303-7.77 0-3.05-.64-5.612-1.926-7.686-1.36-2.092-3.172-3.692-5.372-4.89zm54.953 26.53h10.2V28.768h-10.2V77.03zm45.62-16.032l-20.505-32.23h-9.844v48.26h9.4V45.56l20.2 31.47h10.147V28.77h-9.396V61h-.002zm-60.77-13.235h-19.484V28.768h-9.943V77.03h9.943V55.927h19.484V77.03h9.943V28.768h-9.943v18.995zm-96.97-18.995l-17.762 48.26h9.77l3.763-10.962h18.23l3.982 10.962h10.016l-18.26-48.26h-9.738zM252.8 57.936l6.157-17.91 6.283 17.91H252.8zm-42.44 4.153l-10.44-33.32h-15.494v48.846h10.06V44.12l10.606 33.496h10.425L226.16 44.12v33.496h10.06V28.768h-15.53l-10.33 33.32zm238.836-4.95l.205.17 6.325 6.324 5.227-.586c-2.738 2.98-6.658 4.855-11.018 4.855-8.27 0-14.998-6.73-14.998-15.003s6.73-15 14.998-15c5.312 0 10 2.8 12.6 6.958l8.803-3.016c-4.01-7.762-12.104-13.072-21.445-13.072-13.326 0-24.13 10.803-24.13 24.1 0 13.3 10.8 24.1 24.1 24.133 6.626 0 12.626-2.673 16.985-6.998l-.172 4.626 6.047 6.045 4.922-28.113-28.448 4.58zM253.733 107.24h8.26v5.202c-.902.79-2.125 1.468-3.662 2.04-1.536.57-3.038.857-4.505.9-3.07 0-5.57-.933-7.488-2.796-1.918-1.862-2.88-4.664-2.88-8.404 0-2.453.45-4.533 1.347-6.24.896-1.703 2.084-2.96 3.56-3.767 1.472-.808 3.233-1.212 5.276-1.212 1.404 0 2.7.2 3.8.7 1.123.4 2 1.1 2.7 1.84.686.8 1.3 2 1.7 3.536l3.346-.917c-.5-1.994-1.248-3.564-2.246-4.707-1-1.145-2.27-2.03-3.816-2.65-1.543-.62-3.346-.936-5.404-.936-2.793 0-5.21.54-7.256 1.6-2.043 1.075-3.697 2.744-4.96 5.01-1.265 2.262-1.897 4.92-1.897 7.97 0 3 .6 5.6 1.9 7.7 1.256 2.1 3 3.8 5.1 4.904 2.152 1.1 4.6 1.7 7.3 1.68 2.057 0 4.062-.367 6.012-1.097.68-.255 1.35-.568 2.013-.91v1.708h3.64v-4.057c.003-.005.007-.008.013-.012v-10.39l-11.912.02v3.3h.06zm-89.243 2.458c-.672 1.957-1.17 3.45-1.5 4.48l-1.335-4.137-6.678-19.787h-5.595V118.2h3.58V94.425l8.157 23.775h3.343l8.204-23.372V118.2h3.58V90.254h-5.01l-6.747 19.444zm42.335-19.446l-10.14 27.946h3.668l2.857-8.463h11.063l3.06 8.463h3.98l-10.77-27.946h-3.718zm-2.596 16.472l2.924-8.197c.62-1.766 1.1-3.545 1.44-5.338.394 1.5 1 3.4 1.9 5.8l2.733 7.74h-8.998zM295.1 90.252l-10.143 27.946h3.667l2.857-8.463h11.064l3.057 8.463h3.982L298.82 90.252H295.1zm-2.6 16.472l2.926-8.197c.62-1.766 1.102-3.545 1.44-5.338.394 1.5 1 3.4 1.9 5.794l2.735 7.74h-9zm122.63 5.514l-13.825-21.986h-3.566v27.946h3.35V96.21l13.802 21.988h3.566V90.252h-3.324v21.986h-.003zm30.693 2.662v-9.512h14.547v-3.298h-14.547v-8.54h15.53v-3.3h-19.01v27.946h19.622V114.9h-16.142zm-75.45 3.3h3.478V90.254h-3.48V118.2zm-36.177-5.262l14.744-19.386v-3.3h-18.834v3.3h14.678c-.89.965-1.8 2.07-2.732 3.3l-13.455 17.9v3.43h20.78V114.9h-16.777l1.595-1.962zM56.107 72.04C39.312 65.697 25.205 54.367 24.27 39.62 23.67 30.21 26.04 21.99 32.16 15.07L7.175 21C2.155 22.2-.943 27.244.258 32.264l20.787 86.933c1.2 5 6.2 8.1 11.3 6.917l10.7-2.56c-4.154-1.375-11.333-3.996-18.214-7.666l9.976-22.627s11.7 10.5 28.6 10.454C80.22 103.8 87.7 84 56.1 72zM126.16 94.11L105.373 7.175c-1.2-5.02-6.244-8.118-11.265-6.917L76.203 4.54c4.564.7 13.6 2.7 23.6 7.9l-7.797 21.608s-6.49-7.248-23.888-8.13c-16.54-.837-25.74 17.1 6.5 27.607 24.698 8.1 32.6 23.6 32.2 38-.213 7.487-2.832 13.575-5.867 18.165l18.322-4.38c4.992-1.11 8.128-6.21 6.928-11.202z"/><path d="M103.1 7.718c-.9-3.758-4.69-6.086-8.45-5.188L81.655 5.637c4.828 1.2 11.3 3.2 18.1 6.8L91.97 34.07s-6.49-7.25-23.888-8.13c-16.54-.838-25.74 17.1 6.5 27.606 8.45 2.8 14.9 6.4 19.8 10.6.19-.066.376-.122.565-.19 6.28-2.3 12.307-10.513 16.73-20.313L103.1 7.718zM24.27 39.6c-.514-8.097 1.162-15.315 5.54-21.582l-22.092 5.3c-3.76.9-6.086 4.69-5.188 8.45L14.476 81.7c3.765-4.652 12.804-14.22 25.862-17.81C31.25 57.6 24.9 49.4 24.3 39.62z" class="style1"/></svg>