<svg xmlns="http://www.w3.org/2000/svg" width="237" height="78" viewBox="0 0 237 78"><style>.style0{fill: #FFFFFF;}.style1{fill: #CCCCCC;}</style><path d="M40.666 63.643V32.77H35V21.786h5.666V11h13.02v10.785h5.665V32.77h-5.663v19.813h4.337v11.06H40.666zM108.472 21.785v30.87h5.505V63.64h-17.6v-5.474c-1.472 2.06-3.29 3.6-5.445 4.6-2.158 1.02-4.707 1.526-7.654 1.526-5.01 0-8.87-1.372-11.573-4.115-2.705-2.742-4.057-6.683-4.057-11.823V32.846H61.98v-11.06h18.764v23.012c0 3.1.6 5.4 1.7 6.667 1.112 1.3 2.9 2 5.5 1.973 2.385 0 4.286-.775 5.707-2.326 1.42-1.552 2.13-3.657 2.13-6.312V32.846h-5.23v-11.06h17.922zM116.784 63.643V32.77h-5.663V21.786h5.664V11h13.02v10.785h5.67V32.77h-5.67v19.813h4.34v11.06h-17.36zM137.61 50.76h12.176c.077 1.5.6 2.6 1.4 3.405.87.8 2.1 1.2 3.8 1.2 1.55 0 2.734-.317 3.554-.952.815-.633 1.225-1.546 1.225-2.737 0-1.712-2.022-3.017-6.067-3.908-1.58-.347-2.825-.645-3.736-.895-4.257-1.117-7.393-2.725-9.405-4.822-2.006-2.1-3.012-4.81-3.012-8.136 0-3.948 1.434-7.13 4.3-9.552 2.868-2.42 6.644-3.63 11.33-3.63 1.876 0 3.6.2 5 .6 1.49.4 2.9 1.1 4.2 2.046v-1.75h9.404v11.877H159.84c-.24-1.364-.68-2.337-1.323-2.92-.643-.584-1.596-.876-2.854-.876-1.284 0-2.324.29-3.114.874-.79.583-1.187 1.334-1.187 2.3 0 1.2.4 2.1 1.3 2.72.883.6 3 1.4 6.4 2.16 5.624 1.3 9.5 3 11.6 5 2.117 2 3.2 4.7 3.2 8.302 0 4.073-1.533 7.38-4.602 9.925-3.068 2.546-7.038 3.818-11.912 3.8-1.983 0-3.784-.26-5.404-.783-1.623-.52-3.14-1.328-4.56-2.42v2.124h-9.887V50.76h.11z" class="style0"/><path class="style1" d="M201.8 35.2v-8.6h-14v8.6h-9.2V47h9.2v8.6h14V47h9.2V35.2"/></svg>